<svg id="レイヤー_1" data-name="レイヤー 1" xmlns="http://www.w3.org/2000/svg" xmlns:xlink="http://www.w3.org/1999/xlink" viewBox="0 0 571.36 74.79"><defs><style>.cls-1{fill:url(#radial-gradient);}.cls-2{fill:url(#linear-gradient);}.cls-3{fill:url(#radial-gradient-2);}.cls-4{fill:url(#radial-gradient-3);}.cls-5{fill:url(#linear-gradient-2);}.cls-6{fill:#3e3a39;}</style><radialGradient id="radial-gradient" cx="79.7" cy="39.98" r="10.67" gradientUnits="userSpaceOnUse"><stop offset="0.01" stop-color="#fff"/><stop offset="0.04" stop-color="#fbd5d8"/><stop offset="0.11" stop-color="#f27b84"/><stop offset="0.16" stop-color="#eb3947"/><stop offset="0.2" stop-color="#e71021"/><stop offset="0.22" stop-color="#e50012"/><stop offset="1" stop-color="#9a0015"/></radialGradient><linearGradient id="linear-gradient" x1="75.97" y1="46.32" x2="75.97" y2="38.95" gradientUnits="userSpaceOnUse"><stop offset="0.47" stop-color="#fff" stop-opacity="0"/><stop offset="1" stop-color="#fff"/></linearGradient><radialGradient id="radial-gradient-2" cx="85.96" cy="54.9" r="40.4" gradientUnits="userSpaceOnUse"><stop offset="0.01" stop-color="#fff"/><stop offset="0.03" stop-color="#eaeaea"/><stop offset="0.11" stop-color="#a9a9a9"/><stop offset="0.16" stop-color="#818081"/><stop offset="0.19" stop-color="#717071"/><stop offset="1" stop-color="#231815"/></radialGradient><radialGradient id="radial-gradient-3" cx="60.93" cy="35.23" r="59.7" xlink:href="#radial-gradient"/><linearGradient id="linear-gradient-2" x1="68.16" y1="88.85" x2="17.92" y2="39.22" gradientUnits="userSpaceOnUse"><stop offset="0.84" stop-color="#fff" stop-opacity="0"/><stop offset="1" stop-color="#fff"/></linearGradient></defs><title>logo</title><path class="cls-1" d="M83,45.49a7,7,0,1,1-7-7A7,7,0,0,1,83,45.49Z" transform="translate(-8 -16.49)"/><path class="cls-2" d="M81.39,42.64c0,2-2.42,3.68-5.42,3.68s-5.42-1.65-5.42-3.68S73,39,76,39,81.39,40.6,81.39,42.64Z" transform="translate(-8 -16.49)"/><path class="cls-3" d="M17.81,87A166,166,0,0,1,43,85.12c17,0,32.36,2.37,43.18,6.16L65.16,55C48.7,68.61,31.66,80.43,17.81,87Z" transform="translate(-8 -16.49)"/><path class="cls-4" d="M64.29,53.45,43,16.49,8,77C20.62,79.36,42.72,68.69,64.29,53.45Z" transform="translate(-8 -16.49)"/><path class="cls-5" d="M11.75,76.9a21.18,21.18,0,0,1-3.05-.21L43,17.38,63.7,53.32C42.42,68.31,23.5,76.9,11.75,76.9Z" transform="translate(-8 -16.49)"/><path class="cls-6" d="M131.17,33.56l18.27,44.86h-9.23L136,67.53H111.63l-4.24,10.89H98.17l18.26-44.86Zm-17.3,29.16h19.87L124.12,39h-.64Z" transform="translate(-8 -16.49)"/><path class="cls-6" d="M175.71,75.21a15.79,15.79,0,0,0,5.87-1.08,23.34,23.34,0,0,0,5.35-3.08l2.56,3.85a15.09,15.09,0,0,1-2.85,2,20,20,0,0,1-3.52,1.51,29.06,29.06,0,0,1-3.94,1,23.76,23.76,0,0,1-4.11.35,27.36,27.36,0,0,1-8.29-1.18,17.67,17.67,0,0,1-6.38-3.47,15.34,15.34,0,0,1-4.08-5.6,19.25,19.25,0,0,1-1.43-7.69,19.85,19.85,0,0,1,1.38-7.66,15.36,15.36,0,0,1,3.84-5.64A16.48,16.48,0,0,1,166,45a23.89,23.89,0,0,1,14.74,0,16.89,16.89,0,0,1,5.89,3.37,16.19,16.19,0,0,1,4,5.34,16.47,16.47,0,0,1,1.48,7.11v4.49H164.69c.52,3.55,1.74,6.09,3.69,7.63A11.49,11.49,0,0,0,175.71,75.21ZM173.47,48a8.66,8.66,0,0,0-3.46.7,7.2,7.2,0,0,0-2.79,2.25,12.24,12.24,0,0,0-1.92,4,21.94,21.94,0,0,0-.8,5.89h17.95a19.26,19.26,0,0,0-.77-5.76,12.65,12.65,0,0,0-2-4,7.89,7.89,0,0,0-2.89-2.31A8.14,8.14,0,0,0,173.47,48Z" transform="translate(-8 -16.49)"/><path class="cls-6" d="M228,49.58h-7.69q-4.37,0-6.67,2.34t-2.31,6.95V78.42h-9V58.87q0-6.52,4.13-10.16c2.77-2.41,6.72-3.62,11.9-3.62H228Z" transform="translate(-8 -16.49)"/><path class="cls-6" d="M245.89,37.09a4.83,4.83,0,0,1-1.31,3.35,4.94,4.94,0,0,1-7,0,5,5,0,0,1,0-6.72,4.9,4.9,0,0,1,7,0A4.8,4.8,0,0,1,245.89,37.09Zm-.32,41.33h-9V45.73h9Z" transform="translate(-8 -16.49)"/><path class="cls-6" d="M281.78,57.27q0-4.62-2.4-6.79a8.93,8.93,0,0,0-6.25-2.18,19,19,0,0,0-5.64.86,19.42,19.42,0,0,0-4.94,2.34l-2.24-3.85A18,18,0,0,1,263.42,46a29.87,29.87,0,0,1,3.49-1.19,33.42,33.42,0,0,1,3.55-.73,23.21,23.21,0,0,1,3.31-.25,24.77,24.77,0,0,1,7.24,1,15.42,15.42,0,0,1,5.32,2.76,11.81,11.81,0,0,1,3.3,4.26,13.07,13.07,0,0,1,1.12,5.48V78.42H272.81q-8.71,0-12.85-2.62a8.8,8.8,0,0,1-4.14-8A8.78,8.78,0,0,1,260,59.9q4.14-2.62,12.85-2.63ZM265.44,67.85q0,6.09,7.37,6.09h9V61.76h-9Q265.43,61.76,265.44,67.85Z" transform="translate(-8 -16.49)"/><path class="cls-6" d="M311.58,78.42h-9V33.56h9Z" transform="translate(-8 -16.49)"/><path class="cls-6" d="M383.24,36.76l10,35.57h.64l10.84-38.77H414l-12.5,44.86H387.73l-9.61-34.29h-.64l-9.61,34.29H354.09l-12.5-44.86h9.29l10.83,38.77h.64l10-35.57Z" transform="translate(-8 -16.49)"/><path class="cls-6" d="M438.36,43.82A25.28,25.28,0,0,1,446.27,45a17.21,17.21,0,0,1,6.19,3.46,15.74,15.74,0,0,1,4,5.64,19.31,19.31,0,0,1,1.44,7.66,19.25,19.25,0,0,1-1.44,7.69,15.77,15.77,0,0,1-4,5.6,17.23,17.23,0,0,1-6.19,3.47,27.24,27.24,0,0,1-15.86,0,17.18,17.18,0,0,1-6.14-3.47,15.52,15.52,0,0,1-4-5.6,19.25,19.25,0,0,1-1.45-7.69,19.3,19.3,0,0,1,1.45-7.66,15.51,15.51,0,0,1,4-5.64A17.16,17.16,0,0,1,430.41,45,25.32,25.32,0,0,1,438.36,43.82Zm0,31.72a9.65,9.65,0,0,0,3.84-.77,8.27,8.27,0,0,0,3.15-2.41,12.06,12.06,0,0,0,2.14-4.26,21.69,21.69,0,0,0,.8-6.34,21.81,21.81,0,0,0-.8-6.35,12.15,12.15,0,0,0-2.14-4.26,8.24,8.24,0,0,0-3.15-2.4,10,10,0,0,0-7.68,0,8.14,8.14,0,0,0-3.14,2.4,12.33,12.33,0,0,0-2.15,4.26,22.16,22.16,0,0,0-.8,6.35,22,22,0,0,0,.8,6.34,12.24,12.24,0,0,0,2.15,4.26,8.17,8.17,0,0,0,3.14,2.41A9.65,9.65,0,0,0,438.36,75.54Z" transform="translate(-8 -16.49)"/><path class="cls-6" d="M493.8,49.58h-7.69q-4.37,0-6.67,2.34c-1.53,1.56-2.31,3.88-2.31,6.95V78.42h-9V58.87q0-6.52,4.14-10.16t11.88-3.62h9.62Z" transform="translate(-8 -16.49)"/><path class="cls-6" d="M517.83,63.68H511.1V78.42h-9V33.56h9V59.2h6.73l9.94-14.11h9.61l-11.22,16L538,78.42H527.77Z" transform="translate(-8 -16.49)"/><path class="cls-6" d="M554,52.15a3.58,3.58,0,0,0,1.32,2.69A11.22,11.22,0,0,0,559.81,57l9.93,2.89a17.45,17.45,0,0,1,7.11,3.65,7.73,7.73,0,0,1,2.51,6,9.1,9.1,0,0,1-1,4.19,8.19,8.19,0,0,1-3.15,3.24A17.93,17.93,0,0,1,569.62,79a42.73,42.73,0,0,1-8.53.73,35.21,35.21,0,0,1-5.16-.38,35.93,35.93,0,0,1-4.8-1.06A28.43,28.43,0,0,1,547,76.72a19.72,19.72,0,0,1-3.2-1.82l2.56-3.85A30.9,30.9,0,0,0,552.67,74a25.6,25.6,0,0,0,8.42,1.25c3.2,0,5.45-.42,6.73-1.27a3.78,3.78,0,0,0,1.92-3.21,3.51,3.51,0,0,0-1.34-2.66,12.68,12.68,0,0,0-4.75-2.15L553.72,63a17.41,17.41,0,0,1-6.69-3.5,7.67,7.67,0,0,1-2.6-6.11,8.08,8.08,0,0,1,.93-3.82,8.16,8.16,0,0,1,2.91-3,16.3,16.3,0,0,1,5.07-2,32.45,32.45,0,0,1,7.43-.73,30.47,30.47,0,0,1,9.65,1.43,26.79,26.79,0,0,1,7,3.37l-2.56,3.84a32.72,32.72,0,0,0-6-2.91,23.1,23.1,0,0,0-8.14-1.25,9.35,9.35,0,0,0-5.06,1.09A3.22,3.22,0,0,0,554,52.15Z" transform="translate(-8 -16.49)"/></svg>